<svg xmlns="http://www.w3.org/2000/svg" xmlns:xlink="http://www.w3.org/1999/xlink" aria-hidden="true" role="img" class="iconify iconify--logos" width="35.93" height="32" preserveAspectRatio="xMidYMid meet" viewBox="0 0 256 228"><path fill="#00D8FF" d="M210.483 73.824a171.49 171.49 0 0 0-11.622-5.515l4.63-9.887l-12.893-7.442l-5.638 12.038a170.154 170.154 0 0 0-13.601-4.948L165.34 41.86l-11.36 6.558l6.837 11.846a171.112 171.112 0 0 0-15.35-3.18l.16-13.604l-13.604-.16l-.32 13.764a170.024 170.024 0 0 0-15.83 1.918l-6.198-12.038l-11.36-6.558l-7.283 13.764a171.525 171.525 0 0 0-13.44 5.268l-6.038-12.357l-12.893 7.442l4.47 9.727c-4.63 2.076-9.1 4.39-13.44 6.837L58.002 65.482l-7.283 12.357l9.42 5.756a170.383 170.383 0 0 0-8.863 8.702l-11.2-6.717l-6.558 11.36l13.12 7.761a169.807 169.807 0 0 0-6.198 10.253l-12.357-3.5l-3.34 13.282l13.923 3.978a168.848 168.848 0 0 0-3.02 11.043l-13.443-1.277l-1.118 13.602l14.24 1.437c.16 1.756.32 3.511.32 5.427c0 1.756-.16 3.511-.32 5.267l-14.24 1.437l1.118 13.604l13.443-1.118c.64 3.82 1.437 7.6 3.02 11.202l-13.923 3.978l3.34 13.443l12.357-3.5a170.225 170.225 0 0 0 6.198 10.253l-13.12 7.761l6.558 11.36l11.2-6.717a170.383 170.383 0 0 0 8.863 8.702l-9.42 5.756l7.283 12.357l11.84-7.283a171.525 171.525 0 0 0 13.44 6.837l-4.47 9.727l12.893 7.442l6.038-12.357a170.154 170.154 0 0 0 13.601 4.948l7.283 13.764l11.36 6.558l6.198-12.038a171.112 171.112 0 0 0 15.35 3.18l.32 13.764l13.604.16l-.16-13.604a170.024 170.024 0 0 0 15.83 1.918l6.837 11.846l11.36-6.558l-7.283-13.764a171.49 171.49 0 0 0 13.601-4.948l5.638 12.038l12.893-7.442l-4.63-9.887a171.49 171.49 0 0 0 11.622-5.515l11.84 7.283l7.283-12.357l-9.58-5.756a170.225 170.225 0 0 0 8.863-8.702l13.12 7.761l6.558-11.36l-11.2-6.717a170.383 170.383 0 0 0 6.198-10.253l12.357 3.5l3.34-13.443l-13.923-3.978a168.848 168.848 0 0 0 3.02-11.202l14.24-1.437l-1.118-13.604l-13.443 1.118a169.807 169.807 0 0 0-3.02-11.043l13.923-3.978l-3.34-13.282l-12.357 3.5a170.383 170.383 0 0 0-6.198-10.253l11.2-6.717l-6.558-11.36l-13.12 7.761a170.225 170.225 0 0 0-8.863-8.702l9.58-5.756l-7.283-12.357l-11.84 7.283Zm-8.382 25.21c5.756 11.68 5.756 25.688 0 37.368a42.376 42.376 0 0 1-5.996 8.702a41.897 41.897 0 0 1-15.19 11.36a42.217 42.217 0 0 1-18.685 4.15a42.217 42.217 0 0 1-18.685-4.15a41.897 41.897 0 0 1-15.19-11.36a42.376 42.376 0 0 1-5.996-8.702c-5.756-11.68-5.756-25.688 0-37.368a42.376 42.376 0 0 1 5.996-8.702a41.897 41.897 0 0 1 15.19-11.36a42.217 42.217 0 0 1 18.685-4.15a42.217 42.217 0 0 1 18.685 4.15a41.897 41.897 0 0 1 15.19 11.36a42.376 42.376 0 0 1 5.996 8.702Z"></path></svg>

